<svg width="53" height="116" viewBox="0 0 53 116" fill="none" xmlns="http://www.w3.org/2000/svg">
<path d="M8.28139 68.561C8.28139 70.8476 6.42918 72.7013 4.14436 72.7013C1.85954 72.7013 0.00732422 70.8476 0.00732422 68.561C0.00732422 66.2744 1.85954 64.4207 4.14436 64.4207C6.42918 64.4207 8.28139 66.2744 8.28139 68.561Z" fill="#222F3E"/>
<path d="M30.518 68.561C30.518 70.8476 28.6657 72.7013 26.3809 72.7013C24.0961 72.7013 22.2439 70.8476 22.2439 68.561C22.2439 66.2744 24.0961 64.4207 26.3809 64.4207C28.6657 64.4207 30.518 66.2744 30.518 68.561Z" fill="#222F3E"/>
<path d="M52.7545 68.561C52.7545 70.8476 50.9023 72.7013 48.6175 72.7013C46.3327 72.7013 44.4804 70.8476 44.4804 68.561C44.4804 66.2744 46.3327 64.4207 48.6175 64.4207C50.9023 64.4207 52.7545 66.2744 52.7545 68.561Z" fill="#222F3E"/>
<path d="M8.28139 89.78C8.28139 92.0666 6.42918 93.9202 4.14436 93.9202C1.85954 93.9202 0.00732422 92.0666 0.00732422 89.78C0.00732422 87.4934 1.85954 85.6397 4.14436 85.6397C6.42918 85.6397 8.28139 87.4934 8.28139 89.78Z" fill="#222F3E"/>
<path d="M30.518 89.78C30.518 92.0666 28.6657 93.9202 26.3809 93.9202C24.0961 93.9202 22.2439 92.0666 22.2439 89.78C22.2439 87.4934 24.0961 85.6397 26.3809 85.6397C28.6657 85.6397 30.518 87.4934 30.518 89.78Z" fill="#222F3E"/>
<path d="M52.7545 89.78C52.7545 92.0666 50.9023 93.9202 48.6175 93.9202C46.3327 93.9202 44.4804 92.0666 44.4804 89.78C44.4804 87.4934 46.3327 85.6397 48.6175 85.6397C50.9023 85.6397 52.7545 87.4934 52.7545 89.78Z" fill="#222F3E"/>
<path d="M8.28139 110.999C8.28139 113.286 6.42918 115.139 4.14436 115.139C1.85954 115.139 0.00732422 113.286 0.00732422 110.999C0.00732422 108.712 1.85954 106.859 4.14436 106.859C6.42918 106.859 8.28139 108.712 8.28139 110.999Z" fill="#222F3E"/>
<path d="M30.518 110.999C30.518 113.286 28.6657 115.139 26.3809 115.139C24.0961 115.139 22.2439 113.286 22.2439 110.999C22.2439 108.712 24.0961 106.859 26.3809 106.859C28.6657 106.859 30.518 108.712 30.518 110.999Z" fill="#222F3E"/>
<path d="M52.7545 110.999C52.7545 113.286 50.9023 115.139 48.6175 115.139C46.3327 115.139 44.4804 113.286 44.4804 110.999C44.4804 108.712 46.3327 106.859 48.6175 106.859C50.9023 106.859 52.7545 108.712 52.7545 110.999Z" fill="#222F3E"/>
<path d="M8.28139 4.99392C8.28139 7.28053 6.42918 9.1342 4.14436 9.1342C1.85954 9.1342 0.00732422 7.28053 0.00732422 4.99392C0.00732422 2.7073 1.85954 0.853638 4.14436 0.853638C6.42918 0.853638 8.28139 2.7073 8.28139 4.99392Z" fill="#222F3E"/>
<path d="M30.518 4.99392C30.518 7.28053 28.6657 9.1342 26.3809 9.1342C24.0961 9.1342 22.2439 7.28053 22.2439 4.99392C22.2439 2.7073 24.0961 0.853638 26.3809 0.853638C28.6657 0.853638 30.518 2.7073 30.518 4.99392Z" fill="#222F3E"/>
<path d="M52.7545 4.99392C52.7545 7.28053 50.9023 9.1342 48.6175 9.1342C46.3327 9.1342 44.4804 7.28053 44.4804 4.99392C44.4804 2.7073 46.3327 0.853638 48.6175 0.853638C50.9023 0.853638 52.7545 2.7073 52.7545 4.99392Z" fill="#222F3E"/>
<path d="M8.28139 26.2129C8.28139 28.4995 6.42918 30.3531 4.14436 30.3531C1.85954 30.3531 0.00732422 28.4995 0.00732422 26.2129C0.00732422 23.9262 1.85954 22.0726 4.14436 22.0726C6.42918 22.0726 8.28139 23.9262 8.28139 26.2129Z" fill="#222F3E"/>
<path d="M30.518 26.2129C30.518 28.4995 28.6657 30.3531 26.3809 30.3531C24.0961 30.3531 22.2439 28.4995 22.2439 26.2129C22.2439 23.9262 24.0961 22.0726 26.3809 22.0726C28.6657 22.0726 30.518 23.9262 30.518 26.2129Z" fill="#222F3E"/>
<path d="M52.7545 26.2129C52.7545 28.4995 50.9023 30.3531 48.6175 30.3531C46.3327 30.3531 44.4804 28.4995 44.4804 26.2129C44.4804 23.9262 46.3327 22.0726 48.6175 22.0726C50.9023 22.0726 52.7545 23.9262 52.7545 26.2129Z" fill="#222F3E"/>
<path d="M8.28139 47.4318C8.28139 49.7184 6.42918 51.5721 4.14436 51.5721C1.85954 51.5721 0.00732422 49.7184 0.00732422 47.4318C0.00732422 45.1452 1.85954 43.2915 4.14436 43.2915C6.42918 43.2915 8.28139 45.1452 8.28139 47.4318Z" fill="#222F3E"/>
<path d="M30.518 47.4318C30.518 49.7184 28.6657 51.5721 26.3809 51.5721C24.0961 51.5721 22.2439 49.7184 22.2439 47.4318C22.2439 45.1452 24.0961 43.2915 26.3809 43.2915C28.6657 43.2915 30.518 45.1452 30.518 47.4318Z" fill="#222F3E"/>
<path d="M52.7545 47.4318C52.7545 49.7184 50.9023 51.5721 48.6175 51.5721C46.3327 51.5721 44.4804 49.7184 44.4804 47.4318C44.4804 45.1452 46.3327 43.2915 48.6175 43.2915C50.9023 43.2915 52.7545 45.1452 52.7545 47.4318Z" fill="#222F3E"/>
</svg>
