<svg width="54" height="52" viewBox="0 0 54 52" fill="none" xmlns="http://www.w3.org/2000/svg">
<path d="M9.09902 4.59035C9.09902 6.87697 7.24681 8.73064 4.96199 8.73064C2.67716 8.73064 0.824951 6.87697 0.824951 4.59035C0.824951 2.30374 2.67716 0.450073 4.96199 0.450073C7.24681 0.450073 9.09902 2.30374 9.09902 4.59035Z" fill="#222F3E"/>
<path d="M31.3356 4.59035C31.3356 6.87697 29.4834 8.73064 27.1985 8.73064C24.9137 8.73064 23.0615 6.87697 23.0615 4.59035C23.0615 2.30374 24.9137 0.450073 27.1985 0.450073C29.4834 0.450073 31.3356 2.30374 31.3356 4.59035Z" fill="#222F3E"/>
<path d="M53.5721 4.59035C53.5721 6.87697 51.7199 8.73064 49.4351 8.73064C47.1503 8.73064 45.2981 6.87697 45.2981 4.59035C45.2981 2.30374 47.1503 0.450073 49.4351 0.450073C51.7199 0.450073 53.5721 2.30374 53.5721 4.59035Z" fill="#222F3E"/>
<path d="M9.09902 25.8093C9.09902 28.0959 7.24681 29.9496 4.96199 29.9496C2.67716 29.9496 0.824951 28.0959 0.824951 25.8093C0.824951 23.5227 2.67716 21.669 4.96199 21.669C7.24681 21.669 9.09902 23.5227 9.09902 25.8093Z" fill="#222F3E"/>
<path d="M31.3356 25.8093C31.3356 28.0959 29.4834 29.9496 27.1985 29.9496C24.9137 29.9496 23.0615 28.0959 23.0615 25.8093C23.0615 23.5227 24.9137 21.669 27.1985 21.669C29.4834 21.669 31.3356 23.5227 31.3356 25.8093Z" fill="#222F3E"/>
<path d="M53.5721 25.8093C53.5721 28.0959 51.7199 29.9496 49.4351 29.9496C47.1503 29.9496 45.2981 28.0959 45.2981 25.8093C45.2981 23.5227 47.1503 21.669 49.4351 21.669C51.7199 21.669 53.5721 23.5227 53.5721 25.8093Z" fill="#222F3E"/>
<path d="M9.09902 47.0282C9.09902 49.3148 7.24681 51.1685 4.96199 51.1685C2.67716 51.1685 0.824951 49.3148 0.824951 47.0282C0.824951 44.7416 2.67716 42.888 4.96199 42.888C7.24681 42.888 9.09902 44.7416 9.09902 47.0282Z" fill="#222F3E"/>
<path d="M31.3356 47.0282C31.3356 49.3148 29.4834 51.1685 27.1985 51.1685C24.9137 51.1685 23.0615 49.3148 23.0615 47.0282C23.0615 44.7416 24.9137 42.888 27.1985 42.888C29.4834 42.888 31.3356 44.7416 31.3356 47.0282Z" fill="#222F3E"/>
<path d="M53.5721 47.0282C53.5721 49.3148 51.7199 51.1685 49.4351 51.1685C47.1503 51.1685 45.2981 49.3148 45.2981 47.0282C45.2981 44.7416 47.1503 42.888 49.4351 42.888C51.7199 42.888 53.5721 44.7416 53.5721 47.0282Z" fill="#222F3E"/>
</svg>
