<svg width="257" height="264" viewBox="0 0 257 264" fill="none" xmlns="http://www.w3.org/2000/svg">
<path fill-rule="evenodd" clip-rule="evenodd" d="M125.819 263.557C96.3698 261.468 71.0455 245.393 48.3283 227.735C26.91 211.086 2.50358 192.048 0.399606 166.069C-1.63613 140.933 30.5185 125.461 38.0861 101.267C46.0646 75.7605 27.7997 44.9602 44.9162 23.7506C62.9336 1.42473 113.198 2.31572 143.045 0.659475C174.159 -1.06712 200.754 2.69989 222.325 23.7506C243.318 44.2368 221.095 85.5623 228.632 113.054C235.462 137.969 259.414 141.993 255.992 167.515C252.235 195.536 236.045 221.883 212.344 239.37C188.114 257.247 156.587 265.74 125.819 263.557Z" fill="#404D5B"/>
</svg>
